<svg width="20" height="20" viewBox="0 0 20 20" fill="none" xmlns="http://www.w3.org/2000/svg">
<g clip-path="url(#clip0_5_6925)">
<path fill-rule="evenodd" clip-rule="evenodd" d="M8.66619 18.6605C3.88361 18.6605 -0.00390625 14.7725 -0.00390625 9.99041C-0.00390625 5.20829 3.88361 1.32031 8.66619 1.32031C10.8591 1.32031 12.9173 2.11664 14.5205 3.58657C13.9862 3.90342 13.471 4.25159 12.9777 4.62927C11.7572 3.64355 10.2351 3.10702 8.66619 3.10951C4.87602 3.10951 1.78529 6.20024 1.78529 9.99041C1.78529 13.7806 4.87602 16.8708 8.66619 16.8708C13.9397 16.8708 17.0705 11.2338 14.8024 6.85124C15.2486 6.43619 15.7106 6.0385 16.1875 5.65905C16.9464 6.96935 17.3363 8.45542 17.3363 9.98995C17.3363 14.7725 13.4488 18.6605 8.66619 18.6605Z" fill="white"/>
<path fill-rule="evenodd" clip-rule="evenodd" d="M8.89446 14.4419C8.84865 14.4412 8.80408 14.4269 8.76639 14.4009C8.72869 14.3749 8.69957 14.3382 8.68269 14.2956C8.66654 14.2633 7.26766 10.6517 5.10429 9.28514C4.68121 9.02493 4.35595 8.74857 4.48605 8.13033C4.61616 7.5287 5.02263 7.18682 5.75482 7.02442C7.05589 6.7476 8.45523 8.76471 8.9752 9.59426C10.7976 6.94322 14.4411 2.77888 19.7441 2.29075C19.9997 2.26076 20.0947 2.64 19.858 2.74612C19.7768 2.77842 12.1965 6.24332 9.12191 14.3118C9.09894 14.3517 9.06576 14.3848 9.0258 14.4076C8.98583 14.4305 8.9405 14.4423 8.89446 14.4419Z" fill="white"/>
</g>
<defs>
<clipPath id="clip0_5_6925">
<rect width="20" height="20" fill="white"/>
</clipPath>
</defs>
</svg>
